<?xml version="1.0" encoding="utf-8"?>
<!-- Generator: Adobe Illustrator 23.0.3, SVG Export Plug-In . SVG Version: 6.00 Build 0)  -->
<svg version="1.1" id="Layer_1" xmlns="http://www.w3.org/2000/svg" xmlns:xlink="http://www.w3.org/1999/xlink" x="0px" y="0px"
	 viewBox="0 0 841.9 329.4" style="enable-background:new 0 0 841.9 329.4;" xml:space="preserve">
<style type="text/css">
	.st0{display:none;fill:#973847;}
	.st1{fill:#FCF9FA;}
	.st2{fill:none;stroke:#FCF9FA;stroke-width:1.8656;stroke-miterlimit:10;}
	.st3{opacity:0.5;enable-background:new    ;}
	.st4{fill:none;stroke:#FCF9FA;stroke-width:3.6132;stroke-miterlimit:10;}
	.st5{fill:none;stroke:#FCF9FA;stroke-width:2.3965;stroke-miterlimit:10;}
</style>
<rect y="-121.7" class="st0" width="841.9" height="595.3"/>
<g>
	<g>
		<path class="st1" d="M343.6,201.2c-4.2-2.7-8.9-4.5-13.8-5.3s-9.9-0.5-14.6,0.9l-0.9,0.2l-0.9,0.3c-0.6,0.2-1.2,0.4-1.7,0.6
			c-1.1,0.5-2.3,1-3.3,1.6c-2.2,1.1-4.2,2.5-6.1,4s-3.6,3.2-5.1,5.1c-0.4,0.5-0.7,1-1.1,1.4c-0.4,0.5-0.7,0.9-1,1.5l-0.9,1.5
			l-0.7,1.6c-0.3,0.5-0.4,1.1-0.6,1.6s-0.4,1.1-0.5,1.6c-0.2,1.1-0.4,2.2-0.4,3.3c-0.1,2.1,0.3,4.6,0.7,6.7c0.5,2.2,1.2,4.2,2,5.7
			c0.4,0.8,0.9,1.3,1.2,1.9c0.2,0.2,0.4,0.4,0.6,0.6c0.1,0.1,0.2,0.1,0.3,0.2l0.1,0.1c0,0,0.1,0,0.1,0.1c0.2,0.1,0.4,0.2,0.6,0.3
			c0.3,0,0.4,0.2,0.8,0.2c0.3,0,0.6,0.1,1.1,0.1c0.4,0,0.8,0,1.3,0l1.4-0.2l1.5-0.3l0.8-0.2l0.8-0.3l1.6-0.5
			c4.3-1.5,8.6-3.8,12.9-6.1c8.5-4.9,16.8-10.8,24.9-16.9c8.1-6.2,16-12.5,23.8-19.1c15.5-13.2,30.3-27.3,44.4-42.2
			c14-14.9,27.3-30.5,40.2-46.5c3.2-4,6.4-8,9.7-12.1c1.7-2,3.3-4,5.4-6c0.5-0.5,1.1-1,1.9-1.6c0.4-0.3,1-0.6,2-0.9
			c0.4-0.1,0.7-0.1,1.1-0.1c0.2,0,0.4,0,0.7,0.1c0.2,0.1,0.5,0.2,0.7,0.3c0.5,0.2,0.8,0.5,1.1,0.8c0.2,0.3,0.5,0.7,0.6,0.9
			c0.5,1.1,0.5,1.7,0.5,2.3c0,0.5,0,1-0.1,1.4c-0.1,0.8-0.3,1.6-0.4,2.3c-0.7,2.8-1.6,5.2-2.5,7.7s-1.9,4.9-2.8,7.3
			c-2,4.8-4,9.6-6.2,14.3c-1.1,2.4-2.1,4.7-3.3,7c-0.6,1.1-1.2,2.3-1.7,3.5l-1.7,3.5l-6.8,13.9c-4.5,9.3-9.2,18.6-13.8,27.8L434,184
			c-1.2,2.3-2.6,4.5-3.8,6.8l-7.8,13.3c-2.5,4.4-5,8.8-6.9,13.2c-0.5,1.1-0.9,2.2-1.2,3.2c-0.3,1-0.6,2-0.7,2.8c0,0.2,0,0.4,0,0.5
			s0,0.1,0,0.2c0,0,0,0,0,0.1s0,0,0-0.1c0,0.1,0.1,0.3,0.1,0.4c0.1,0.3,0.1,0.7,0.2,1c0,0.2,0.1,0.4,0.2,0.6l0.1,0.3v0.1l0,0
			c0.1,0.1-0.3-0.3,0.3,0.3l-0.4-0.3c0.4,0.7,1.3,1.1,2.4,1.3c1.1,0.2,2,0.1,3.1-0.4c1.1-0.4,2.2-1.2,3.4-2.3c1.2-1,2.4-2.1,3.6-3.2
			c4.8-4.4,9.2-9.4,13.5-14.5l0,0c0.6-0.7,1.6-0.8,2.3-0.2c0.7,0.5,0.8,1.5,0.3,2.2c-1.8,2.9-3.7,5.7-5.7,8.4
			c-2,2.8-4.1,5.5-6.3,8.1c-1.1,1.3-2.3,2.6-3.5,3.8c-1.2,1.2-2.7,2.6-4.7,3.7c-1,0.5-2,1-3.1,1.2c-1.1,0.3-2.3,0.4-3.5,0.4
			s-2.3-0.2-3.5-0.5c-1.2-0.4-2.3-0.9-3.4-1.6l-0.4-0.3c0.6,0.5,0,0.1,0.1,0.1l-0.2-0.1l-0.3-0.2c-0.2-0.1-0.4-0.3-0.6-0.4
			c-0.4-0.3-0.7-0.6-1.1-0.9c-0.7-0.7-1.3-1.4-1.8-2.2c-0.2-0.4-0.5-0.9-0.6-1.4c-0.2-0.6-0.4-1.4-0.5-1.9c0-0.3-0.1-0.6-0.1-0.9
			v-0.8c0-0.6,0.1-1,0.1-1.5c0.2-1.8,0.7-3.3,1.2-4.7c0.5-1.4,1-2.7,1.6-4c2.3-5,5-9.6,7.7-14.1s5.5-8.8,8.3-13.1
			c1.4-2.2,2.8-4.3,4-6.5l3.7-6.7c4.9-8.9,10-17.8,14.7-27l7.2-13.6c2.6-4.4,4.3-9.3,6.6-13.9c2.2-4.6,4.3-9.3,6.4-13.9
			c1-2.3,2-4.7,2.9-7s1.7-4.7,2.3-7c0.1-0.5,0.2-1.1,0.3-1.5c0-0.2,0-0.4,0-0.5s-0.1-0.1,0.2,0.4c0,0.1,0.2,0.4,0.3,0.5
			c0.2,0.2,0.4,0.4,0.7,0.6c0.2,0.1,0.3,0.1,0.5,0.2c0.2,0,0.4,0.1,0.4,0.1c0.2,0,0.4,0,0.6,0c0.4-0.1,0.4-0.1,0.3,0
			c-0.2,0.1-0.6,0.5-1,0.9c-1.6,1.6-3.2,3.6-4.8,5.5c-3.2,4-6.3,8-9.4,12.1c-6.3,8.2-12.6,16.4-19.1,24.4c-6.5,8.1-13.2,16-20,23.7
			c-13.7,15.5-28.2,30.5-43.5,44.5c-3.8,3.5-7.7,7-11.7,10.3c-2,1.7-4,3.3-6,5c-2,1.6-4,3.3-6.1,4.9l-6.2,4.8l-6.4,4.6
			c-2.1,1.5-4.4,3-6.6,4.5s-4.5,2.8-6.8,4.2c-4.7,2.7-9.5,5.2-15,7.1l-2.1,0.7l-1.1,0.3l-1.1,0.3l-2.3,0.5l-2.4,0.3
			c-0.8,0.1-1.7,0.1-2.6,0.1c-0.5,0-0.9,0-1.3,0l-1.4-0.2c-0.9-0.1-2-0.4-2.9-0.7c-1-0.4-2-0.8-2.9-1.4c-0.5-0.3-0.9-0.6-1.3-0.9
			s-0.8-0.7-1.2-1c-0.7-0.7-1.4-1.5-2-2.3c-0.5-0.8-1.1-1.6-1.4-2.4l-0.6-1.2c-0.2-0.4-0.3-0.8-0.4-1.2c-1-3.3-1.2-6.4-1-9.4
			c0.4-5.7,2.2-11.8,5.1-16.6c1.4-2.5,3.2-4.7,5.1-6.7c2-2,4.1-3.7,6.3-5.2c2.3-1.5,4.6-2.9,7.1-3.9c1.2-0.6,2.5-1,3.8-1.5l1.9-0.6
			l1-0.3l1-0.2c5.2-1.2,10.8-1.4,16-0.4c5.3,1,10.3,3,14.9,5.7c0.7,0.4,1,1.3,0.5,2C345.2,201.4,344.3,201.6,343.6,201.2
			L343.6,201.2z"/>
	</g>
	<g>
		<path class="st1" d="M348.8,173.2c5.8,0.1,11.6-0.2,17.4-0.8c5.8-0.6,11.5-1.6,17.2-2.4s11.4-1.7,17-2.9
			c5.6-1.2,11.2-2.7,16.9-4.2c11.3-3.1,22.7-6,34.3-8c5.8-1,11.6-1.9,17.5-2.6c5.8-0.7,11.7-1.3,17.6-1.6c0.7,0,1.3,0.5,1.3,1.2
			s-0.4,1.2-1.1,1.3c-5.8,0.8-11.5,1.6-17.3,2.6c-2.9,0.5-5.7,1-8.6,1.6c-2.9,0.5-5.7,1.1-8.5,1.8c-5.7,1.2-11.3,2.6-16.9,4.1
			s-11.2,3.1-16.8,4.7c-11.2,3.3-22.9,6.1-34.6,7.6c-5.9,0.7-11.8,0.8-17.7,0.7c-5.9-0.1-11.8-0.2-17.7-0.5c-0.8,0-1.3-0.7-1.3-1.4
			C347.5,173.8,348.1,173.2,348.8,173.2z"/>
	</g>
	<g>
		<path class="st1" d="M478,177.6c-1.8,3.9-4,7.5-6.2,11.1l-6.7,10.8L451.5,221c-2.2,3.6-4.5,7.2-6.6,10.8l-0.8,1.3l-0.3,0.6l0,0
			c0-0.1,0-0.1,0.1-0.2c0.3-0.1,0-2.7-1.4-2.9c-3.4-0.1-2.1,0.7-2.5,0.5l-0.1,0.1l0,0l0.1-0.2l1.7-2.6c1.2-1.8,2.4-3.6,3.6-5.3
			c1.2-1.8,2.5-3.5,3.7-5.2s2.5-3.5,3.7-5.2c2.5-3.5,5.2-6.9,8-10.2c1.4-1.7,2.8-3.3,4.3-4.9s3-3.1,4.5-4.6c3-3.1,6.1-6.1,9.5-9
			c1.7-1.4,3.5-2.8,5.5-4.2c2-1.3,4.3-2.5,7.1-3.1c1.4-0.2,3-0.3,4.6,0s3.1,1,4.4,1.8c2.6,1.7,4.2,4.1,5.2,6.5
			c1.1,2.4,1.7,4.9,1.8,7.5c0.1,2.6-0.3,5.1-0.9,7.4c-1.3,4.6-3.4,8.6-5.7,12.3c-2.3,3.7-4.9,7.2-7.2,10.6c-2.2,3.3-5.3,7.4-3.3,8.4
			l-0.1-0.1c0.1,0,0.1,0.1,0.3,0.1c0.2,0,0.5,0,0.9,0c0.8,0,1.5-0.1,2.2-0.3c0.3-0.1,0.8-0.2,1-0.2l1.1-0.4c0.8-0.3,1.5-0.5,2.2-0.8
			c3-1.2,5.9-2.4,8.7-3.9c1.4-0.7,2.8-1.5,4.2-2.3s2.8-1.6,4.1-2.4c2.7-1.7,5.3-3.5,7.7-5.5s4.7-4.2,6.8-6.5s4-4.9,5.7-7.5
			s3.4-5.4,4.7-8.2c0.7-1.4,1.3-2.8,1.7-4.2c0.5-1.4,0.8-2.8,0.7-3.8c0-0.5-0.2-0.7-0.2-0.7c0,0.1,0.1,0-0.3,0c-0.1,0-0.2,0-0.3,0
			s-0.2,0-0.3,0c-0.3,0-0.5,0-0.8,0.1c-0.3,0-0.6,0.1-0.9,0.2c-0.3,0.1-0.6,0.1-1,0.2c-2.7,0.7-5.5,2.2-7.8,3.7
			c-2.3,1.6-4.3,3.6-6,5.9c-1.6,2.3-3,4.9-3.9,7.7c-0.5,1.4-0.9,2.8-1.3,4.3c-0.3,1.4-0.6,2.9-0.8,4.4c-0.4,3-0.6,6.1-0.4,9.1
			c0.2,3,0.3,6.1,1.6,8.6c0.3,0.6,0.7,1.1,1.1,1.5c0.5,0.4,0.9,0.7,1.5,0.8c0.6,0.1,1.2,0.1,1.8,0c0.7-0.1,1.3-0.3,2-0.6
			c2.7-1.2,5-3.4,7.3-5.5s4.6-4.4,6.7-6.7c4.3-4.7,8.3-9.8,12.2-15s7.6-10.5,11.1-15.9c1.8-2.7,3.5-5.5,5.1-8.2
			c0.4-0.7,0.8-1.4,1.1-2l0.2-0.5l0.1-0.2c0,0,0-0.1,0,0.1c0.2,0.3-0.7-0.1,0.8,1.9c1.9,0.9,2,0.2,2.1,0.3c0.2-0.1,0.1-0.1,0.1-0.1
			c-0.1,0-0.2,0.2-0.3,0.3c-1,1-2.2,2.2-3.2,3.4c-8.4,9.7-15.6,20.6-19.6,32.7c-1,3-1.9,6.1-2.5,9.2c-0.3,1.6-0.6,3.1-0.8,4.6
			c0,0.4-0.1,0.7-0.1,1.1c0,0.2,0,0.3,0,0.4s0,0.1,0,0.1v-0.1c-0.2-0.3,0-0.2-0.6-0.7c-0.3-0.5-1.8-0.3-1.8-0.1
			c-0.3,0.2-0.4,0.3-0.4,0.3c-0.1,0.1,0,0,0,0.1l0,0c0-0.1,0.1-0.2,0.2-0.4c0.1-0.3,0.3-0.7,0.4-1.1c1.1-3,2.2-6.2,3.5-9.3
			c1.3-3.1,2.8-6.1,4.3-9s3.2-5.8,5-8.6c1.8-2.8,3.8-5.5,6-8.1c1.1-1.3,2.3-2.5,3.5-3.8c1.2-1.2,2.5-2.5,4-3.6s3.2-2.1,5.1-2.7
			c1.9-0.7,4.1-0.9,6.2-0.7c2.1,0.2,4,0.9,5.9,1.9c1.8,1,3.5,2.4,4.8,4.3c1.3,1.8,2,4.2,2.1,6.4c0,2.2-0.4,4.1-1,5.8
			c-1.2,3.4-2.6,6.4-4,9.4c-1.3,3-2.8,6-4.4,8.9c-1.6,2.9-3.2,5.8-5.3,8.7c-0.3,0.4-0.6,0.7-0.9,1.1c-0.2,0.2-0.4,0.4-0.6,0.6
			c-0.1,0.1-0.2,0.2-0.4,0.3l-0.3,0.2c-0.1,0.1-0.3,0.2-0.4,0.2c-0.1,0.1-0.3,0.1-0.6,0.2c-0.2,0-0.5,0.1-1,0
			c-0.9-0.1-1.6-0.9-1.7-1.2c-0.4-0.8-0.4-1.2-0.4-1.6c0-0.7,0-1.2,0.1-1.7c0.2-1.9,0.6-3.5,1.1-5.2c1.9-6.5,4.6-12.7,8.3-18.4
			c1.8-2.9,3.8-5.6,5.9-8.3c2.1-2.7,4.5-5.2,7.3-7.5c1.4-1.1,2.9-2.2,4.7-3s3.9-1.5,6.3-1.5c2.5,0,4.8,0.8,6.9,2.5
			c1,0.9,1.9,2.1,2.5,3.4c0.1,0.3,0.2,0.7,0.3,1s0.1,0.7,0.2,1c0.1,0.7,0.1,1.3,0.1,1.9c-0.2,2.4-0.9,4.2-1.7,5.8
			c-0.8,1.6-1.7,3.1-2.5,4.5c-1.6,2.9-3.2,5.8-4.7,8.6c-1.5,2.9-2.9,5.8-4.3,8.8c-0.7,1.5-1.3,2.9-1.9,4.4c-0.6,1.5-1.2,3-1.4,4.3
			c0,0.2-0.1,0.3-0.1,0.4s0,0.3,0,0.3v0.1l0,0c0,0-0.1-0.2-0.2-0.3c-0.2-0.2-0.2-0.1-0.1-0.1c0.2,0,0.4,0,0.7-0.1
			c1.2-0.2,2.6-0.8,4-1.5c2.7-1.4,5.3-3.2,7.8-5.1c5-3.9,9.4-8.5,13.1-13.7c3.6-5.2,6.7-10.9,8.8-16.8c0.5-1.5,1-3,1.2-4.3
			c0-0.2,0-0.3,0-0.4c0,0,0-0.1,0,0c0,0,0,0.2,0.2,0.5c0.2,0.2,0.4,0.4,0.7,0.5s0.6,0.1,0.7,0.1c0.3,0,0.3-0.1,0.4-0.1
			c0,0-0.1,0-0.2,0.1c-0.4,0.4-1,0.9-1.4,1.5c-2,2.4-3.7,5.1-5.2,7.8c-6,11-7.2,24.7-2.1,36.3c0.4,0.8,0,1.8-0.9,2.2
			c-0.8,0.4-1.8,0-2.2-0.9l0,0l0,0c-1.3-3.1-2.3-6.4-2.9-9.7c-0.6-3.4-0.8-6.8-0.6-10.2c0.4-6.8,2.3-13.4,5.5-19.4
			c1.6-3,3.4-5.8,5.6-8.5c0.6-0.7,1.1-1.3,1.9-2c0.2-0.2,0.4-0.4,0.8-0.6c0.2-0.1,0.4-0.2,0.9-0.3c0.2,0,0.6,0,1,0.1
			s0.7,0.4,0.9,0.7c0.3,0.4,0.4,0.9,0.4,1.1c0.1,0.3,0.1,0.4,0.1,0.6c0,0.3,0,0.6,0,0.9c-0.1,1-0.3,1.8-0.6,2.7
			c-0.2,0.8-0.5,1.6-0.8,2.4c-2.3,6.3-5.4,12.3-9.2,17.8c-3.9,5.5-8.5,10.4-13.8,14.6c-2.6,2.1-5.4,4-8.5,5.6
			c-0.8,0.4-1.6,0.8-2.4,1.1c-0.8,0.3-1.7,0.6-2.7,0.8c-0.5,0.1-1.1,0.1-1.7,0.1c-0.7-0.1-1.5-0.2-2.4-1c-0.4-0.4-0.7-1-0.8-1.4
			c-0.2-0.5-0.2-0.8-0.2-1.2c0-0.4,0-0.6,0-0.9s0.1-0.5,0.1-0.8c0.4-1.9,1-3.5,1.6-5c0.6-1.6,1.2-3.1,1.9-4.6l3.9-9
			c1.2-3.1,2.6-6.1,3.7-9.1c0.5-1.5,1-3,1.3-4.5c0.3-1.4,0.6-2.8,0.5-3.7c0-0.4-0.1-0.7-0.1-0.8c-0.1-0.2-0.1-0.3-0.3-0.5
			c-0.4-0.4-1.3-0.8-2.1-0.8c-0.9-0.1-2,0.1-3.2,0.6s-2.5,1.1-3.7,1.9c-4.9,3.2-9.4,8-12.9,13.1c-1.8,2.6-3.3,5.3-4.7,8.2
			c-1.4,2.8-2.5,5.8-3.4,8.8c-0.4,1.5-0.8,3-1,4.4c0,0.3,0,0.7,0,0.8c0,0.1,0.1,0.1-0.2-0.4c-0.1-0.1-0.1-0.2-0.4-0.5
			c-0.2-0.2-0.5-0.3-0.9-0.4s-0.6,0-0.7,0c-0.2,0-0.3,0.1-0.3,0.1l-0.1,0.1l0,0c0,0,0,0,0.1,0c0.1-0.1,0.2-0.2,0.3-0.3
			c0.2-0.2,0.4-0.5,0.6-0.8c1.7-2.4,3.3-5.3,4.8-8.1c1.5-2.9,2.8-5.7,4-8.7s2.4-6,2.9-8.9c0.3-1.4,0.3-2.8,0.2-3.9
			c-0.2-1.1-0.6-1.9-1.3-2.7c-1.3-1.5-3.7-2.7-6-3.1c-1.1-0.2-2.3-0.3-3.5-0.1c-1.2,0.2-2.6,0.5-3.9,1c-2.7,1.1-5.2,3-7.3,5.3
			c-4.3,4.6-7.7,10.1-10.8,15.7c-3.2,5.6-5.5,11.5-7.6,17.7l-0.5,1.2c-0.1,0.2-0.2,0.4-0.3,0.7c0,0.1-0.1,0.1-0.1,0.2
			c-0.1,0.1-0.1,0.1-0.2,0.3c-0.1,0.1-0.2,0.3-0.6,0.6c-0.1,0.3-1.7,0.5-2.1-0.1c-0.7-0.6-0.5-0.6-0.7-1c0-0.1-0.1-0.3-0.1-0.4
			c0-0.2-0.1-0.4-0.1-0.5c0-0.3,0-0.5,0-0.8c0-0.5,0-0.9,0.1-1.4c0.2-1.7,0.4-3.4,0.8-5c0.7-3.3,1.5-6.5,2.5-9.7
			c4.1-12.8,11.5-24.2,20-34.3c1.1-1.3,2.2-2.5,3.5-3.8c0.2-0.2,0.4-0.3,0.6-0.5c0.1-0.1,0.3-0.2,0.6-0.4c0.2,0.1,0.4-0.7,2.4,0.2
			c1.5,2.1,0.6,1.8,0.8,2.2c-0.1,0.4-0.1,0.5-0.2,0.7l-0.2,0.4c-0.1,0.2-0.2,0.4-0.3,0.6c-0.4,0.8-0.8,1.5-1.2,2.3
			c-1.6,2.9-3.4,5.7-5.1,8.5c-3.5,5.5-7.2,11-11.1,16.3c-3.9,5.3-8,10.4-12.5,15.3c-2.3,2.4-4.6,4.8-7.2,7c-2.7,2.1-5.6,4-9,5.2
			c-0.9,0.3-1.8,0.6-2.7,0.7c-1,0.2-2,0.2-3,0s-2.1-0.7-2.9-1.3c-0.9-0.6-1.5-1.3-2.2-2.1c-1.2-1.5-2.1-3.2-2.7-4.8
			c-0.7-1.7-1.2-3.4-1.5-5.1c-0.6-3.5-0.8-6.9-0.6-10.4c0.1-1.7,0.3-3.5,0.6-5.3c0.3-1.7,0.7-3.5,1.3-5.2s1.3-3.4,2.1-5
			s1.8-3.2,2.9-4.7c2.2-3,5-5.5,8.2-7.4c3.2-1.8,6.4-3.1,10.1-4c0.5-0.1,0.9-0.2,1.4-0.3c0.5-0.1,1-0.1,1.5-0.2s1.1,0,1.6,0
			c0.3,0,0.6,0.1,0.9,0.1c0.3,0,0.6,0.1,0.9,0.2c1.2,0.3,2.8,1.1,3.7,2.5c1,1.4,1.1,2.8,1.1,4c0,2.3-0.6,4.1-1.3,5.8
			c-0.7,1.7-1.4,3.2-2.2,4.7c-1.6,3-3.5,5.8-5.4,8.6c-2,2.7-4.1,5.3-6.3,7.9c-2.3,2.5-4.8,4.8-7.4,6.9c-2.6,2.1-5.4,4-8.3,5.7
			c-1.4,0.9-2.9,1.7-4.3,2.5c-1.4,0.8-2.9,1.6-4.4,2.3c-3,1.5-6.1,2.8-9.2,3.9c-0.8,0.3-1.6,0.5-2.4,0.8l-1.2,0.4
			c-0.6,0.2-0.9,0.2-1.4,0.3c-0.9,0.2-1.8,0.2-2.7,0.3c-0.4,0-0.9,0.1-1.5,0s-1.3-0.2-2-0.6h-0.1l-0.1-0.1c-0.7-0.5-1.2-1.2-1.6-1.8
			c-0.4-0.7-0.6-1.3-0.7-2.3c-0.1-1.7,0.3-2.9,0.7-4.1c0.8-2.3,1.9-4.2,3-6c2.2-3.7,4.5-7.2,6.5-10.8c2-3.6,3.6-7.3,4.4-10.9
			c0.4-1.8,0.5-3.6,0.3-5.3c-0.2-1.6-0.9-3.2-1.8-4.6s-1.9-2.5-2.9-3.1c-0.5-0.3-0.9-0.5-1.4-0.6s-1.1-0.2-1.8-0.1
			c-1.4,0.1-3.1,0.6-4.8,1.4c-1.7,0.8-3.4,1.8-5,3c-3.2,2.4-6.3,5.2-9.4,8.1c-1.5,1.4-3.1,2.9-4.5,4.4c-1.5,1.5-2.9,3-4.3,4.5
			c-2.8,3.1-5.4,6.3-8,9.6c-2.6,3.3-5.1,6.7-7.5,10.2c-1.2,1.7-2.4,3.5-3.6,5.2l-1.8,2.7l-0.3,0.4l-0.1,0.1c0,0,0,0.1-0.2,0.2
			c-0.4-0.2,0.9,0.6-2.6,0.6c-1.4-0.2-1.8-2.8-1.4-3c0-0.1,0.1-0.2,0.1-0.3l0.1-0.2c0.2-0.4,0.3-0.6,0.4-0.8l0.8-1.4l6.5-11l13-21.9
			l6.6-10.9c2.2-3.6,4.5-7.2,7.2-10.5c0.8-1,2.3-1.2,3.4-0.4C478.2,175.4,478.4,176.6,478,177.6z"/>
	</g>
	<g>
		<path class="st1" d="M681.7,189.2c-0.1-0.3-1-0.9-2.3-1.1c-1.2-0.2-2.6-0.2-4,0.1c-2.7,0.6-5.5,1.6-8.1,2.8
			c-2.6,1.2-5.2,2.6-7.6,4.2c-2.4,1.6-4.6,3.4-6.6,5.4c-4.1,4-7.6,8.6-10.3,13.5c-1.4,2.5-2.5,5-3.4,7.5c-0.4,1.3-0.7,2.5-0.8,3.6
			c-0.1,0.6-0.1,1.1-0.1,1.5s0.1,0.7,0.1,0.7s-0.2-0.3-0.3-0.3s0.1,0.1,0.5,0.1c0.8,0.1,2,0,3.2-0.3c2.5-0.6,5.1-1.6,7.6-2.8
			c5.1-2.5,10-5.7,14.4-9.3c2.2-1.8,4.3-3.8,6.3-5.9s3.8-4.3,5.5-6.7c1.7-2.3,3.3-4.8,4.5-7.3c0.6-1.2,1.1-2.5,1.4-3.7
			c0.1-0.6,0.1-1.1,0.1-1.6C681.9,189.5,681.8,189.3,681.7,189.2z M685.6,186.1c0.8,1,1.2,2.3,1.3,3.4s-0.1,2-0.2,2.9
			c-0.3,1.8-0.9,3.3-1.5,4.8c-1.3,3-2.9,5.7-4.6,8.3c-1.7,2.6-3.5,5.1-5.6,7.5c-2,2.4-4.2,4.6-6.5,6.8c-4.6,4.2-9.7,7.9-15.3,11
			c-2.8,1.5-5.7,2.9-9.1,3.8c-1.7,0.4-3.5,0.8-5.7,0.7c-1.1-0.1-2.4-0.3-3.8-1c-0.7-0.3-1.4-0.9-1.9-1.5c-0.3-0.3-0.6-0.7-0.7-1
			c-0.2-0.3-0.4-0.7-0.5-1c-0.6-1.4-0.7-2.6-0.8-3.7c0-1.1,0.1-2.1,0.2-3c0.3-1.9,0.9-3.5,1.5-5.1c1.2-3.1,2.8-6,4.5-8.6
			c3.5-5.3,7.8-10.1,12.7-14.1c2.4-2,5.1-3.8,7.8-5.4c2.8-1.5,5.6-2.9,8.5-4s5.9-2,9.1-2.6c1.6-0.2,3.2-0.5,5-0.5
			c0.9,0,1.8,0.1,2.9,0.4C683.6,184.5,684.8,185.1,685.6,186.1z"/>
	</g>
	<g>
		<path class="st1" d="M697.8,190c-5.6,4.1-10.5,9.3-13.9,15.1c-0.5,0.7-0.8,1.5-1.2,2.2c-0.4,0.8-0.8,1.5-1.1,2.3
			c-0.7,1.6-1.4,3.2-1.9,4.8c-1.2,3.3-2.1,6.6-2.4,9.7c-0.1,1.5,0,3,0.3,3.9c0.4,0.9,0.6,1.2,1.7,1.5c1,0.3,2.5,0.4,4,0.2
			c1.5-0.2,3.1-0.6,4.7-1.1c3.2-1,6.4-2.5,9.5-4.1s6.2-3.5,9.2-5.4l0,0c1.1-0.7,2.6-0.4,3.3,0.7c0.7,1,0.4,2.4-0.5,3.2
			c-5.8,4.8-12.1,9-19.5,11.8c-1.9,0.7-3.8,1.2-5.9,1.6c-2.1,0.3-4.3,0.4-6.9-0.2c-1.3-0.4-2.6-1-3.7-2c-1.1-1-1.9-2.3-2.4-3.6
			c-0.9-2.5-0.9-4.8-0.8-6.9c0.4-4.2,1.6-7.9,2.9-11.5c0.7-1.8,1.4-3.5,2.3-5.3c0.4-0.9,0.9-1.7,1.4-2.6c0.5-0.8,1-1.7,1.5-2.5
			c4.2-6.6,10.1-12,16.8-15.8c1.1-0.7,2.6-0.3,3.3,0.9C699.1,187.9,698.8,189.3,697.8,190L697.8,190z"/>
	</g>
	<g>
		<path class="st1" d="M166.3,123.1c-6.2,11.4-12.8,22.5-19.3,33.7c-3.3,5.6-6.6,11.2-10,16.7s-7,10.9-10.7,16.3
			c-7.3,10.7-15.3,21-23.9,30.9c-4.3,4.9-8.8,9.8-13.6,14.5c-2.5,2.3-5,4.6-7.9,6.7c-0.7,0.5-1.5,1.1-2.3,1.5
			c-0.4,0.2-0.8,0.5-1.2,0.7l-1.3,0.7c-1.8,0.9-3.7,1.8-6.5,2.1c-0.4,0-0.7,0-1.1,0s-0.7,0-1.1-0.1c-0.8-0.1-1.6-0.2-2.4-0.5
			s-1.5-0.7-2.2-1.1c-0.6-0.5-1.2-1-1.7-1.5c-1-1-1.6-2.1-2.2-3.1c-0.5-1-0.9-2-1.2-3c-1.2-3.9-1.4-7.6-1.2-11.3
			c0.2-3.7,0.8-7.3,2.4-11.1c0.4-0.9,0.9-1.9,1.6-2.9c0.3-0.5,0.7-1,1.1-1.4c0.5-0.5,0.8-0.9,1.4-1.4c0.5-0.4,1.1-0.8,1.7-1.2
			c0.7-0.3,1.3-0.7,2.1-0.9c1.5-0.4,3-0.5,4.4-0.3c2.8,0.4,4.6,1.5,6.3,2.4c1.7,1,3.1,2,4.5,3c2.7,2,5.3,4,7.8,5.8s5.1,3.5,7.6,4.9
			c2.6,1.4,5.2,2.7,7.9,3.6c5.4,1.8,11,2.3,16.3,1.9c1.3,0,2.7-0.3,4-0.4c1.3-0.3,2.7-0.4,4-0.8l2-0.5l2-0.6c0.7-0.2,1.3-0.4,2-0.6
			s1.3-0.4,2-0.7c5.3-1.9,10.5-4.4,15.5-7.5c0.6-0.4,1.2-0.8,1.9-1.2l0.5-0.3l0.5-0.3l0.9-0.6l0.9-0.6c0.3-0.2-0.1,0.1,0.1-0.1
			l0.4-0.3c0.5-0.4,1.1-0.9,1.6-1.4c2.2-2,4.3-4.1,6.3-6.4c4-4.5,7.7-9.5,10.8-14.8s5.6-11,7.6-16.9s3.4-11.9,4.4-18
			s1.3-12.3,1.2-18.6c-0.1-6.4-0.1-12.8-0.7-19c-0.3-3.1-0.7-6.1-1.3-9.1c-0.6-2.9-1.5-5.7-2.7-8.3c-2.4-5-6.5-9-11.7-11.3l-1.9-0.8
			l-2.1-0.6c-0.3-0.1-0.7-0.2-1-0.3l-1.1-0.2c-0.7-0.1-1.4-0.3-2.1-0.4c-1.5-0.1-2.9-0.4-4.4-0.4c-0.7,0-1.5-0.1-2.2-0.1l-2.3,0.1
			c-6.1,0.3-12.2,1.5-18.2,3.2s-12,3.8-17.8,6.3c-11.7,4.9-23,10.8-33.9,17.4c-2.7,1.7-5.3,3.4-7.9,5.2s-5.1,3.7-7.6,5.7
			c-5,3.9-9.8,8.1-14.3,12.5c-2.3,2.2-4.5,4.5-6.7,6.8s-4.3,4.7-6.4,7c-4.2,4.8-8.2,9.8-12.2,14.8c-0.4,0.5-1,0.5-1.5,0.2
			c-0.4-0.3-0.5-0.9-0.3-1.3c2.9-5.8,6.4-11.4,10.2-16.7c1.9-2.7,4-5.2,6.1-7.7s4.3-4.9,6.6-7.3c4.6-4.7,9.5-9.1,14.5-13.3
			c5.1-4.2,10.4-8.1,15.9-11.6c11.1-7,22.6-13.2,34.6-18.4c6-2.6,12.2-4.9,18.6-6.7c6.4-1.8,13-3.2,19.8-3.6l2.6-0.1
			c0.9,0,1.7,0,2.6,0c1.7,0,3.5,0.2,5.2,0.4c0.9,0.1,1.7,0.3,2.6,0.4l1.3,0.2c0.4,0.1,0.9,0.2,1.3,0.3l2.6,0.7l2.5,1
			c0.4,0.2,0.8,0.3,1.3,0.5l1.2,0.7c0.8,0.5,1.6,0.8,2.4,1.4l2.2,1.6c0.4,0.3,0.7,0.6,1.1,0.9l1,0.9c2.7,2.5,4.9,5.6,6.5,8.8
			c1.7,3.2,2.7,6.7,3.5,10c0.8,3.4,1.3,6.7,1.6,10c0.7,6.6,0.9,13.2,1.1,19.6c0.2,6.6,0,13.4-0.8,20c-0.8,6.7-2.2,13.2-4.2,19.7
			c-1,3.2-2.1,6.4-3.3,9.5s-2.6,6.2-4,9.3c-2.9,6.1-6.1,12.1-9.9,17.8c-1.9,2.9-3.9,5.7-6.2,8.4c-0.6,0.7-1.1,1.4-1.8,2.1
			c-0.2,0.2-0.3,0.3-0.5,0.5c0,0.1-0.8,0.7-0.8,0.7l-1,0.9l-1,0.9l-0.5,0.4l-0.5,0.4c-0.7,0.6-1.4,1.1-2.1,1.7
			c-5.6,4.4-11.8,8-18.6,10.6s-14.3,4-21.9,3.4c-7.6-0.5-14.8-2.7-21.3-6c-6.5-3.2-12.2-7.4-17.2-11.8c-2.5-2.2-4.9-4.4-7.3-6.4
			c-1.2-1-2.3-1.9-3.4-2.6c-1-0.7-2.1-1.2-2.6-1.2c-0.1,0-0.2,0-0.3,0c-0.1,0-0.1,0-0.1,0c-0.1,0-0.2,0-0.4,0.2
			c-0.4,0.3-1,1.2-1.5,2.2c-1,2.1-1.5,5-1.6,7.7s0.3,5.6,1,7.8c0.4,1.1,0.9,2,1.3,2.3c0.1,0.1,0.1,0.1,0.1,0.1s0,0,0-0.1
			c-0.1,0,0,0,0.2-0.1c0.5-0.1,1.6-0.5,2.6-1.1l0.8,0.5l0.8-0.6c0.6-0.4,1.1-0.8,1.7-1.2c2.3-1.8,4.5-3.9,6.6-6
			c4.3-4.4,8.4-9.2,12.3-14.2s7.7-10.1,11.6-15.2l11.4-15.4c3.8-5.1,7.7-10.3,11.6-15.4l11.7-15.4c7.8-10.3,15.3-20.8,23-31.1
			c0.7-0.9,2-1.1,2.9-0.4C166.5,121.1,166.7,122.2,166.3,123.1z"/>
	</g>
	<g>
		<path class="st1" d="M178.9,235.8c10.1-13.6,19.9-27.3,28-41.5c1-1.8,1.9-3.6,2.7-5.3c0.4-0.9,0.8-1.8,1.1-2.6
			c0.3-0.9,0.5-1.7,0.5-2.4c0-0.3,0-0.6,0-0.7s0-0.1-0.1-0.2s-0.1-0.2-0.2-0.3c-0.4-0.5-1-0.9-1.5-1c-0.3-0.1-0.5-0.1-0.6-0.1
			s-0.1,0-0.2,0.1c-0.1,0-0.2,0.1-0.3,0.1c-0.4,0.3-0.8,0.9-1.1,1.7c-0.3,0.7-0.5,1.6-0.5,2.4s0.1,1.6,0.3,2
			c0.1,0.1,0.1,0.2,0.2,0.2c0,0,0,0,0.1,0.1h0.1c0,0,0.1,0,0.2,0.1c0.1,0,0.2,0,0.3,0.1c0.6,0.1,1.4,0,2.3-0.2
			c1.8-0.4,3.6-1.2,5.4-2c0.9-0.4,1.8-0.9,2.7-1.4s1.7-1,2.6-1.5c0.9-0.5,1.7-1.1,2.7-1.7s2.1-1.2,3.5-1.7s3-0.7,4.4-0.6
			s2.7,0.3,4.2,0.8c0.7,0.3,1.5,0.6,2.2,1.1c0.8,0.5,1.6,1.3,2.1,2.3c0.3,0.5,0.5,1,0.7,1.6c0.1,0.5,0.3,1.1,0.3,1.6
			c0.1,1-0.1,1.9-0.3,2.7c-0.4,1.6-1.1,2.8-1.7,3.8c-0.7,1.1-1.4,2-2,2.9c-2.4,3.3-4.9,6.8-7.2,10.2c-2.3,3.5-4.6,7-6.8,10.6
			s-4.4,7.2-6.4,10.8c-1,1.8-2,3.6-2.7,5.4c-0.4,0.8-0.7,1.7-0.7,2.3c-0.1,0.3,0,0.3-0.1,0c-0.1-0.1-0.3-0.3-0.4-0.3
			c-0.1-0.1-0.2,0-0.1,0c0.1,0,0.4,0,0.8,0c0.4-0.1,0.8-0.2,1.2-0.3c0.9-0.3,1.8-0.6,2.7-1c1.8-0.8,3.6-1.8,5.2-2.9
			c3.3-2.2,6.1-5.1,8.4-8.5c0.5-0.8,1.5-1,2.3-0.5c0.7,0.5,0.9,1.4,0.5,2.2c-2.2,3.9-5.1,7.4-8.7,10.2c-1.8,1.4-3.7,2.5-5.7,3.6
			c-1,0.5-2,1-3.2,1.4c-0.6,0.2-1.2,0.4-1.8,0.5c-0.7,0.1-1.4,0.3-2.4,0.1c-0.5-0.1-1-0.2-1.6-0.5c-0.3-0.1-0.6-0.4-0.8-0.6
			s-0.5-0.5-0.7-0.8c-0.7-1.2-0.7-2.3-0.7-3c0.1-1.6,0.5-2.7,0.9-3.9c0.8-2.2,1.8-4.2,2.7-6.1c1.9-3.8,3.9-7.6,6-11.4
			c2.1-3.7,4.3-7.4,6.5-11.1c2.3-3.6,4.5-7.3,7.1-10.8c0.6-0.9,1.2-1.6,1.6-2.4c0.4-0.7,0.8-1.4,0.9-1.9c0.1-0.2,0.1-0.4,0.1-0.4
			s0,0.1,0.1,0.2c0,0.1,0.1,0.1,0,0s-0.3-0.2-0.6-0.3c-0.5-0.2-1.3-0.4-2-0.5s-1.2,0-1.9,0.1c-1.3,0.3-3.2,1.4-5.2,2.4
			c-1,0.5-2.1,1-3.1,1.4s-2,0.8-3.1,1.2c-2.1,0.7-4.3,1.4-6.7,1.7c-1.2,0.1-2.5,0.2-4-0.1c-0.4-0.1-0.8-0.2-1.2-0.4
			c-0.4-0.2-0.8-0.4-1.2-0.7c-0.2-0.1-0.4-0.3-0.6-0.5c-0.2-0.2-0.3-0.4-0.5-0.5c-0.3-0.4-0.5-0.8-0.7-1.1c-0.6-1.5-0.7-2.9-0.6-4.2
			c0.1-1.3,0.4-2.6,0.9-3.8c0.5-1.2,1.2-2.4,2.4-3.5c0.3-0.3,0.7-0.5,1.1-0.7c0.2-0.1,0.4-0.2,0.6-0.3c0.2-0.1,0.5-0.1,0.7-0.2
			c0.9-0.2,1.8-0.1,2.5,0c1.5,0.4,2.8,1,3.9,2.1c0.3,0.3,0.5,0.6,0.8,0.9s0.5,0.8,0.7,1.2c0.4,0.9,0.5,1.7,0.6,2.4
			c0.1,1.5-0.1,2.7-0.3,3.9c-0.2,1.2-0.5,2.3-0.9,3.4c-0.3,1.1-0.7,2.2-1.1,3.2l-0.6,1.5l-0.7,1.5c-0.9,2-1.9,3.9-3,5.8
			c-1,1.9-2.2,3.8-3.4,5.6c-2.4,3.6-5,7.1-7.7,10.4s-5.5,6.6-8.4,9.7c-1.5,1.6-2.9,3.1-4.4,4.6s-3,3-4.6,4.5l0,0
			c-0.7,0.6-1.7,0.6-2.4-0.1C178.4,237.3,178.4,236.4,178.9,235.8z"/>
	</g>
	<path class="st2" d="M653.7,145.3c-1,4.7-2.9,7.6-4.6,9.4c-3.3,3.8-6.3,4.1-7.4,7.6c-0.8,2.6-0.1,5.7,1.5,7.7
		c3.2,3.8,9.9,3.8,13.4,0.9c4.6-3.7,2.9-11.4,2.1-15.1C657.6,150.8,655.2,147.3,653.7,145.3z"/>
	<path class="st1" d="M647.1,161.5c-0.5-0.2-1.9,0.8-2.3,2.3c-0.4,1.5,0.4,2.8,0.8,3.5c0.6,0.9,1.5,1.9,1.8,1.7
		c0.4-0.2-0.5-1.6-0.5-3.9C646.8,162.9,647.5,161.7,647.1,161.5z"/>
	<path class="st3" d="M82.2,226.3c0.2,0.7,0.4,1.4,0.6,2.2c1.2,3.4,2.9,6,4.4,7.9c0.6-0.6,1.2-1.2,1.8-1.7c0.6-0.5,1.1-1.1,1.7-1.6
		c-1.3-0.7-2.7-1.5-4.2-2.7C84.7,228.9,83.3,227.5,82.2,226.3z"/>
	<path class="st3" d="M214.9,192.3c-0.4,0.9-0.7,1.7-1.1,2.6c-0.6-0.1-1.3-0.2-1.9-0.4c-1.7-0.4-3.1-0.9-4.4-1.4
		c1.2,0,2.5-0.1,3.9-0.2C212.7,192.8,213.9,192.5,214.9,192.3z"/>
	<path class="st3" d="M388.5,175.1c5.7-1.2,11.4-2.3,17.2-3.5c-1.1,1.2-2.2,2.4-3.3,3.6c-1.6,0.3-3.5,0.5-5.6,0.6
		C393.5,175.9,390.7,175.6,388.5,175.1z"/>
	<path class="st3" d="M445.6,160.9c-3.4,0.9-6.9,1.7-10.3,2.6c1.4,0.1,2.9,0.1,4.6-0.1c1.8-0.1,3.5-0.4,4.9-0.7
		C445.1,162.1,445.3,161.5,445.6,160.9z"/>
	<path class="st3" d="M518.6,224.1c-0.1-1.7-0.2-3.4-0.4-5.1c0.2-0.2,0.4-0.4,0.7-0.5c-0.1,0.5-0.2,1.4,0.1,2.4
		c0.3,1.1,0.9,1.8,1.2,2.2C519.7,223.4,519.1,223.8,518.6,224.1z"/>
	<path class="st3" d="M594.6,196.8c-1.3,1.3-2.9,3.1-4.6,5.2c-1.1,1.4-2.7,3.4-4.4,6c-1.5,2.3-3.3,5.7-4.9,10.1
		c0.4-1,2.3-5.7,4.5-8.9c0.8-1.1,1.7-2.3,1.7-2.3c0.4-0.6,1.4-1.7,2.5-3c0.9-1.1,2.4-2.6,4.6-4.2c0.1-0.4,0.3-0.9,0.4-1.4
		C594.6,197.8,594.6,197.3,594.6,196.8z"/>
	<path class="st3" d="M671.8,216.5c-0.3,0.8-0.5,1.7-0.8,2.5c3.7-3.3,8.7-8.6,12.2-16.4c1.3-2.9,2.2-5.6,2.8-8.1
		c-1.4,4-3.7,9.3-7.8,14.7C676.1,212.2,673.9,214.6,671.8,216.5z"/>
	<g>
		<path class="st4" d="M763.4,224.6l-56-42.2c-2.2-1.7-2.6-4.8-1-7l14.9-19.8c1.7-2.2,4.8-2.6,7-1l56,42.2L763.4,224.6z"/>
		<path class="st1" d="M760.8,235.4l1.6,1.2c1.4,1.1,3.4,0.8,4.5-0.6l29.4-39c1.1-1.4,0.8-3.4-0.6-4.5l-1.7-1.2
			c-1.4-1.1-3.4-0.8-4.5,0.6l-29.4,39C759.1,232.3,759.3,234.3,760.8,235.4z"/>
		
			<rect x="779.1" y="214.3" transform="matrix(0.6016 -0.7988 0.7988 0.6016 137.7025 714.4046)" class="st1" width="11.9" height="9.7"/>
		<path class="st1" d="M761.2,198.3c-0.6,0.3-1.6,0.7-2.9,0.8c-1.4,0.1-2.6-0.2-3.2-0.4c-27.6-20.8-55.3-41.5-82.9-62.3
			c3.3,1,6.6,1.9,10,2.9C708.4,159,734.8,178.7,761.2,198.3z"/>
		<path class="st1" d="M785,232.4l1.7,1.3c1.5,1.1,3.5,0.8,4.6-0.6l8.9-11.8c1.1-1.5,0.8-3.5-0.6-4.6l-1.7-1.3
			c-1.5-1.1-3.5-0.8-4.6,0.6l-8.9,11.8C783.2,229.3,783.5,231.3,785,232.4z"/>
		<path class="st5" d="M782.3,199.4c-6.3,8.4-12.6,16.8-19,25.2l-37.4-28.3c2.6-1.5,6.6-3.3,11.3-2.9c6.6,0.6,7.5,4.9,14.3,6.1
			c6.6,1.2,8.8-2.3,17.7-2.5C774.8,197,779.4,198.3,782.3,199.4z"/>
		<path class="st3" d="M777.9,221.2c2.4-3.2,4.8-6.3,7.2-9.5c0.4,0.3,0.9,0.7,1.3,1c-2,3.5-4,7-6,10.4
			C779.6,222.5,778.7,221.8,777.9,221.2z"/>
	</g>
</g>
</svg>
